# xmcd
#
# Track frame offsets: 
#        150
#        7894
#        16152
#        19490
#        27340
#        31827
#        39843
#        45359
#        59105
#        63990
#        80758
#        87760
#        97729
#        100078
#        106662
#        110120
#        119661
#        122124
#        128443
#        130918
#        138360
#        143482
#        159053
#        163900
#        179955
#        182777
#        191361
#        195485
#        203608
#        211429
#        219250
#        222689
#        235835
#        238890
#        245767
#        248361
#        257878
#        260471
#        266150
#        270317
#        280816
#        284922
#
# Disc length: 3982 seconds
#
# Revision: 0
# Processed by: cddbd v1.5.2PL0 Copyright (c) Steve Scherf et al.
# Submitted via: ExactAudioCopy v0.95b4
#
DISCID=620f8c2a
DTITLE=Streetlife Music - Gitarre spielen macht Spaß
DYEAR=1900
DGENRE=Guitar
TTITLE0=Gitarren Stimmung
TTITLE1=Gitarren Anschlag
TTITLE2=Oh, Susanna
TTITLE3=Oh, Susanna (ohne Gitarre)
TTITLE4=Gloryland
TTITLE5=Gloryland (ohne Gitarre)
TTITLE6=My Bonnie is over the ocean
TTITLE7=My Bonnie is over the ocean (ohne Gitarre)
TTITLE8=Streets of London
TTITLE9=Streets of London (ohne Gitarre)
TTITLE10=Take me home, country roads
TTITLE11=Take me home, country roads (ohne Gitarre)
TTITLE12=Oh, when the saints
TTITLE13=Oh, when the saints (ohne Gitarre)
TTITLE14=Dirty old town
TTITLE15=Dirty old town (ohne Gitarre)
TTITLE16=What shall we do
TTITLE17=What shall we do (ohne Gitarre)
TTITLE18=He's got the whole world
TTITLE19=He's got the whole world (ohne Gitarre)
TTITLE20=Greensleeves
TTITLE21=Greensleeves (ohne Gitarre)
TTITLE22=Those were the days
TTITLE23=Those were the days (ohne Gitarre)
TTITLE24=Down by the riverside
TTITLE25=Down by the riverside (ohne Gitarre)
TTITLE26=Come Missa Tallymann
TTITLE27=Come Missa Tallymann (ohne Gitarre)
TTITLE28=Guantanamera
TTITLE29=Guantanamera (ohne Gitarre)
TTITLE30=House of the rising sun
TTITLE31=House of the rising sun (ohne Gitarre)
TTITLE32=Kein schöner Land
TTITLE33=Kein schöner Land (ohne Gitarre)
TTITLE34=Bolle reiste jüngst zu Pfingsten
TTITLE35=Bolle reiste jüngst zu Pfingsten (ohne Gitarre)
TTITLE36=Drei Chinesen mit dem Kontrabass
TTITLE37=Drei Chinesen mit dem Kontrabass (ohne Gitarre)
TTITLE38=Muss i denn zum Städtele hinaus
TTITLE39=Muss i denn zum Städtele hinaus (ohne Gitarre)
TTITLE40=Ade zur guten Nacht
TTITLE41=Ade zur guten Nacht (ohne Gitarre)
EXTD=
EXTT0=
EXTT1=
EXTT2=
EXTT3=
EXTT4=
EXTT5=
EXTT6=
EXTT7=
EXTT8=
EXTT9=
EXTT10=
EXTT11=
EXTT12=
EXTT13=
EXTT14=
EXTT15=
EXTT16=
EXTT17=
EXTT18=
EXTT19=
EXTT20=
EXTT21=
EXTT22=
EXTT23=
EXTT24=
EXTT25=
EXTT26=
EXTT27=
EXTT28=
EXTT29=
EXTT30=
EXTT31=
EXTT32=
EXTT33=
EXTT34=
EXTT35=
EXTT36=
EXTT37=
EXTT38=
EXTT39=
EXTT40=
EXTT41=
PLAYORDER=
